<svg xmlns="http://www.w3.org/2000/svg" viewBox="0 0 800 600" preserveAspectRatio="xMidYMid slice" role="img" aria-label="Fumigation service photo placeholder">
  <defs><linearGradient id="fu" x1="0" y1="0" x2="1" y2="1"><stop offset="0%" stop-color="#134E4A"/><stop offset="100%" stop-color="#042F2A"/></linearGradient></defs>
  <rect width="800" height="600" fill="url(#fu)"/>
  <circle cx="180" cy="150" r="100" fill="#F59E0B" opacity="0.22"/>
  <g transform="translate(360 160)"><ellipse cx="80" cy="180" rx="78" ry="130" fill="#fff" opacity="0.95"/><rect x="40" y="40" width="80" height="80" rx="10" fill="#F59E0B"/><rect x="64" y="6" width="32" height="44" rx="4" fill="#94A3B8"/><circle cx="80" cy="200" r="12" fill="#0F766E"/></g>
  <g opacity="0.45" fill="#5EEAD4">
    <circle cx="170" cy="360" r="6"/><circle cx="210" cy="400" r="4"/><circle cx="250" cy="360" r="6"/><circle cx="130" cy="430" r="4"/>
    <circle cx="640" cy="240" r="6"/><circle cx="680" cy="280" r="4"/><circle cx="620" cy="300" r="4"/>
  </g>
  <g transform="translate(60 520)" font-family="Plus Jakarta Sans, sans-serif">
    <g transform="translate(0 -16)"><rect x="-16" y="-14" width="32" height="24" rx="4" fill="none" stroke="#fff" stroke-width="2.5"/><circle cx="0" cy="-2" r="7" fill="none" stroke="#fff" stroke-width="2.5"/><rect x="-10" y="-20" width="10" height="6" rx="2" fill="#fff"/></g>
    <text x="36" y="-8" fill="#fff" font-size="28" font-weight="700">Fumigation</text>
    <text x="36" y="18" fill="rgba(255,255,255,0.65)" font-family="Inter, sans-serif" font-size="14">Replace with a real photo · images/photos/fumigation.svg</text>
  </g>
</svg>
